# xmcd
#
# Track frame offsets: 
#        150
#        3635
#        9549
#        24275
#        34716
#        46285
#        56142
#        70423
#        82403
#        92132
#        105599
#        116853
#        129815
#        139448
#        145544
#        151721
#        166339
#        176528
#        188606
#        198836
#        213468
#        225584
#        235656
#        250064
#        261297
#        275211
#
# Disc length: 3722 seconds
#
# Revision: 0
# Processed by: cddbd v1.5.2PL0 Copyright (c) Steve Scherf et al.
# Submitted via: ExactAudioCopy v0.95b4
#
DISCID=680e881a
DTITLE=The Beatles  - Beatles Live 06 - Convention Hall Wisdom - Disc 
DTITLE=1
DYEAR=1900
DGENRE=
TTITLE0=intro (Philadelphia 1964)
TTITLE1=Twist and Shout (Philadelphia 1964)
TTITLE2=You Can't Do That (Philadelphia 1964)
TTITLE3=All My Loving (Philadelphia 1964)
TTITLE4=She Loves You (Philadelphia 1964)
TTITLE5=Things We Said Today (Philadelphia 1964)
TTITLE6=Roll Over Beethoven (Philadelphia 1964)
TTITLE7=Can't Buy Me Love (Philadelphia 1964)
TTITLE8=If I Fell (Philadelphia 1964)
TTITLE9=I Want To Hold Your Hand (Philadelphia 1964)
TTITLE10=Boys (Philadelphia 1964)
TTITLE11=A Hard Day's Night (Philadelphia 1964)
TTITLE12=Long Tall Sally (Philadelphia 1964)
TTITLE13=intro (Indianapolis1964)
TTITLE14=Twist And Shout (Indianapolis1964)
TTITLE15=You Can't Do That (Indianapolis1964)
TTITLE16=All My Loving (Indianapolis1964)
TTITLE17=She Loves You (Indianapolis1964)
TTITLE18=Things We Said Today (Indianapolis1964)
TTITLE19=Roll Over Beethoven (Indianapolis1964)
TTITLE20=Can't Buy Me Love (Indianapolis1964)
TTITLE21=If I Fell (Indianapolis1964)
TTITLE22=I Want To Hold Your Hand (Indianapolis1964)
TTITLE23=Boys (Indianapolis1964)
TTITLE24=A Hard Day's Night (Indianapolis1964)
TTITLE25=Long Tall Sally (Indianapolis1964)
EXTD=
EXTT0=
EXTT1=
EXTT2=
EXTT3=
EXTT4=
EXTT5=
EXTT6=
EXTT7=
EXTT8=
EXTT9=
EXTT10=
EXTT11=
EXTT12=
EXTT13=
EXTT14=
EXTT15=
EXTT16=
EXTT17=
EXTT18=
EXTT19=
EXTT20=
EXTT21=
EXTT22=
EXTT23=
EXTT24=
EXTT25=
PLAYORDER=
